<?xml version="1.0" standalone="no"?>
<!DOCTYPE svg PUBLIC "-//W3C//DTD SVG 20010904//EN"
 "http://www.w3.org/TR/2001/REC-SVG-20010904/DTD/svg10.dtd">
<svg version="1.0" xmlns="http://www.w3.org/2000/svg"
 width="64.000000pt" height="64.000000pt" viewBox="0 0 64.000000 64.000000"
 preserveAspectRatio="xMidYMid meet">
<metadata>
Created by potrace 1.16, written by Peter Selinger 2001-2019
</metadata>
<g transform="translate(0.000000,64.000000) scale(0.100000,-0.100000)"
fill="#000000" stroke="none">
<path d="M0 320 l0 -320 320 0 320 0 0 320 0 320 -320 0 -320 0 0 -320z m570
241 c6 -12 10 -109 10 -245 0 -221 0 -225 -22 -240 -19 -13 -60 -16 -244 -16
-198 0 -223 2 -237 18 -13 14 -16 53 -18 248 -1 127 1 237 5 243 5 8 81 11
251 11 231 0 245 -1 255 -19z"/>
<path d="M145 476 c-12 -18 -15 -35 -10 -54 3 -15 6 -51 5 -80 -2 -69 8 -112
26 -112 10 0 11 6 4 26 -22 58 -9 114 26 114 28 0 64 32 64 58 0 28 20 42 59
42 42 0 87 -21 84 -38 -2 -7 8 -12 22 -12 14 0 25 3 25 8 -1 30 -78 63 -149
63 -31 0 -75 2 -98 5 -37 5 -43 3 -58 -20z m70 -23 c1 -11 7 -28 14 -37 12
-14 9 -16 -28 -16 -39 0 -53 11 -31 25 6 3 10 17 10 31 0 19 5 25 18 22 9 -2
17 -13 17 -25z"/>
<path d="M463 338 l2 -62 -32 -7 c-42 -8 -63 -26 -63 -53 0 -12 -6 -30 -13
-41 -19 -26 -105 -16 -126 14 -13 21 -51 29 -51 12 0 -19 12 -41 20 -36 4 3
22 -2 39 -11 17 -8 46 -15 63 -15 194 -1 199 2 192 118 -3 43 -7 93 -10 111
-8 55 -23 35 -21 -30z m-13 -123 c0 -13 5 -27 10 -30 21 -13 9 -25 -24 -25
-38 0 -57 16 -31 26 10 4 13 13 9 26 -4 12 -1 24 7 29 18 11 29 2 29 -26z"/>
<path d="M248 359 c-22 -12 -24 -62 -3 -79 9 -7 25 -10 41 -6 30 8 24 20 -9
21 -15 0 -23 7 -25 23 -3 21 6 27 36 23 18 -3 15 16 -4 23 -19 7 -15 8 -36 -5z"/>
<path d="M320 321 c0 -45 10 -56 45 -47 60 15 51 86 -10 86 -34 0 -35 -1 -35
-39z m58 -3 c-2 -13 -10 -23 -18 -23 -8 0 -16 10 -18 23 -3 17 2 22 18 22 16
0 21 -5 18 -22z"/>
</g>
</svg>
