<?xml version="1.0" encoding="UTF-8"?><svg xmlns="http://www.w3.org/2000/svg" xmlns:xlink="http://www.w3.org/1999/xlink" viewBox="0 0 2292.48 2292.48"><defs><style>.cls-1{fill:#fff;}.cls-2{fill:url(#Sfumatura_senza_nome_169);}.cls-3{fill:none;stroke:#231f20;stroke-miterlimit:10;}.cls-4{fill:#16456a;}</style><linearGradient id="Sfumatura_senza_nome_169" x1="976.71" y1="2033.43" x2="1289.42" y2="259.94" gradientUnits="userSpaceOnUse"><stop offset="0" stop-color="#0f324e"/><stop offset="1" stop-color="#16466b"/></linearGradient></defs><g id="Livello_2"><rect class="cls-1" x=".5" y=".5" width="2291.48" height="2291.48" rx="400" ry="400"/><rect class="cls-3" x=".5" y=".5" width="2291.48" height="2291.48" rx="400" ry="400"/></g><g id="Layer_1"><ellipse class="cls-1" cx="1146.52" cy="1146.24" rx="900.71" ry="901.77"/><ellipse class="cls-1" cx="538.94" cy="538.66" rx="293.13" ry="268.61"/><ellipse class="cls-1" cx="1741.3" cy="1715.44" rx="282.47" ry="268.61"/><path class="cls-2" d="M1802.61,531.69l-17.3-174.94-82.89,83.44c-23.96-18.96-48.76-36.35-74.27-52.46-219.98-139.25-487.56-173.75-731.25-103.78-47.8,13.72-99.78,5.82-139.34-24.34-61.1-46.63-138.54-72.92-222.24-68.82-175.08,8.62-316.36,153.11-321.32,328.33-2.12,74.78,20.02,144.29,59.12,201.25,28.49,41.48,36.15,93.59,20.15,141.3-81.67,243.63-56.64,515.41,75.39,741.53l106.58-62.55c-97.39-167.13-127.19-363.08-89.46-547.9,15.1-74.02,81.28-127.54,156.81-125.37,12.25.35,24.66.05,37.23-.94,165.09-13.1,297.95-146.84,310.25-312.01.48-6.52.78-13.01.89-19.46,1.35-76.87,58.11-141.1,134.06-153.06,174.39-27.41,356.41,4.51,513.11,95.83,13.08,7.63,25.99,15.69,38.7,24.15,12.69,8.48,25.21,17.39,37.52,26.73l-81.5,82.06,190.4,17.56,89.73,8.34-10.36-104.92ZM694.25,727.59c-16.78,2.74-37.51,4.27-61.38,5.13-23.87.87-50.87,1.04-80.2,1.08h-.5c-58.67-.05-108-.74-141.56-6.21-64.18-10.48-72.11-78.54-15.35-104.83,31.21-14.46,75.14-33.69,95.21-44.4,4.66-2.48,7.51-7.33,7.46-12.62l-.27-17.24c-.06-3.74-1.56-7.31-4.27-9.88-11.38-10.84-42.08-45.94-42.08-109.61,0-38.84,23.62-104.54,100.83-104.86,0-.02.02-.02.02-.04.09,0,.18.02.27.02.11,0,.18-.02.28-.02v.04c77.21.32,100.84,66.02,100.84,104.86,0,63.65-30.72,98.77-42.1,109.61-2.71,2.57-4.23,6.14-4.27,9.88l-.25,17.24c-.07,5.29,2.8,10.14,7.46,12.62,20.06,10.71,63.99,29.94,95.18,44.4,56.8,26.29,48.85,94.35-15.32,104.83ZM2019.79,1535.13c-20.64-36.52-24.95-80.25-12.64-120.37,73.21-238.59,45.45-501.78-83.56-721.63l-105.63,64.67c82.96,142.26,116.94,305.42,101.96,464.78-7.95,84.66-82.91,148.12-167.66,141.3-15.97-1.29-32.22-1.47-48.74-.46-167.63,10.32-304.09,145.05-316.36,312.54-1.63,22.41-1.08,44.39,1.45,65.75,10.27,85.94-48.12,164.62-133.85,176.57-170.23,23.72-346.87-8.83-499.49-97.76-26.36-15.28-51.8-32.2-76.41-50.88l74.11-74.48-174.76-16.18-105.29-9.81,8.6,87.42,19.07,192.43,90.38-90.95c12.02,9.44,24.24,18.55,36.61,27.3,12.39,8.76,24.95,17.16,37.66,25.16,236.58,149.66,528.18,178.25,785.94,86.1,40.77-14.59,85.46-10.53,124.3,8.6,49.24,24.29,105.23,36.95,164.46,34.38,176.69-7.7,319.39-153.62,323.37-330.44,1.43-63.35-14.57-122.82-43.52-174.04ZM1866.65,1899.98c-16.78,2.74-37.52,4.27-61.38,5.13-23.87.87-50.88,1.04-80.2,1.08h-.49c-58.67-.05-108.01-.74-141.57-6.21-64.18-10.48-72.11-78.54-15.35-104.85,31.21-14.45,75.14-33.67,95.21-44.39,4.66-2.5,7.51-7.35,7.44-12.62l-.25-17.24c-.05-3.74-1.56-7.31-4.27-9.9-11.38-10.82-42.08-45.94-42.08-109.59,0-38.84,23.62-104.54,100.83-104.86,0-.02.02-.04.02-.04.09,0,.18.02.26.02.11,0,.18-.02.28-.02v.04c77.21.32,100.83,66.02,100.83,104.86,0,63.65-30.7,98.77-42.09,109.59-2.71,2.58-4.23,6.16-4.27,9.9l-.25,17.24c-.09,5.28,2.8,10.13,7.45,12.62,20.06,10.71,63.99,29.94,95.18,44.39,56.8,26.31,48.85,94.36-15.31,104.85Z"/><path class="cls-4" d="M1049.54,1195.21l82.48,77.62c-51.75,65.15-120.37,97.72-205.84,97.72-47.13,0-88.83-10.4-125.1-31.19-36.28-20.79-64.57-49.32-84.9-85.59-20.34-36.27-30.49-77.97-30.49-125.1s10.16-89.06,30.49-125.79c20.33-36.73,48.51-65.72,84.55-86.98,36.04-21.25,77.85-31.88,125.45-31.88,39.73,0,76.81,6.7,111.24,20.1,34.42,13.41,63.42,36.73,86.98,70l-81.09,81.78c-12.94-17.55-28.42-31.64-46.44-42.28-18.02-10.62-38.58-15.94-61.68-15.94-25.88,0-47.94,5.66-66.19,16.98-18.26,11.33-32.23,26.57-41.93,45.74-9.7,19.18-14.55,40.78-14.55,64.8s4.96,46.56,14.9,66.19c9.93,19.64,24.14,35,42.62,46.09,18.47,11.09,39.96,16.63,64.46,16.63,27.26,0,49.21-4.85,65.84-14.55,16.63-9.7,33.03-24.49,49.21-44.36Z"/><path class="cls-4" d="M1177.06,1358.78v-462.28h177.43c47.58,0,89.98,8.21,127.18,24.6,37.19,16.41,66.64,41.82,88.37,76.24,21.71,34.43,32.57,78.66,32.57,132.72,0,50.83-10.86,93.22-32.57,127.18-21.72,33.96-51.41,59.38-89.06,76.24-37.67,16.87-80.05,25.3-127.18,25.3h-176.73ZM1299.73,1250.66h49.9c39.73,0,70.69-11.44,92.87-34.31,22.18-22.87,33.27-52.55,33.27-89.06s-10.17-66.76-30.5-89.41c-20.33-22.63-52.22-33.96-95.64-33.96h-49.9v246.73Z"/></g></svg>